<svg width="195" height="54" viewBox="0 0 195 54" fill="none" xmlns="http://www.w3.org/2000/svg">
<path d="M20.1297 34.7501H10.7886C10.7886 34.7501 10.8991 37.4302 11.5071 39.3009C12.1151 41.1717 12.5603 42.6507 13.7825 44.4505C17.3477 49.7007 21.6889 51.8631 28.0338 51.9953C33.4614 52.1084 37.2526 50.1872 40.8479 46.9655C43.3872 44.6901 45.5536 39.3074 45.6383 36.4267C45.8778 28.2832 45.758 9.48108 45.758 9.48108H36.2971C36.2971 9.48108 36.6564 26.0077 36.2971 36.4267C36.231 38.3429 34.9842 39.727 33.5427 40.9776C31.7884 42.4995 29.9499 42.8937 28.0338 42.8937C26.1177 42.8937 23.3521 41.29 21.6866 39.3009C20.3262 37.6762 20.1297 34.7501 20.1297 34.7501Z" fill="#67A1FE"/>
<path d="M74.9785 7.08484L51.5059 49.1201L62.8829 49.2398L75.3378 26.7252L87.7927 49.2398H98.4512L74.9785 7.08484Z" fill="url(#paint0_linear_207_64)"/>
<path d="M135.167 34.99C135.167 34.99 131.095 41.3107 123.551 40.7384C119.859 40.4584 117.476 39.3413 115.048 36.5469C112.739 33.8896 111.971 31.5634 112.054 28.044C112.131 24.7442 112.909 22.6546 115.048 20.14C117.718 16.9995 121.344 15.8012 125.467 15.8287C130.616 15.8629 134.688 20.9783 134.688 20.9783L145.107 20.7388C145.107 20.7388 142.233 13.673 137.922 10.9186C133.285 7.95612 130.25 6.4029 124.748 6.36775C118.934 6.33061 115.097 7.57315 110.617 11.2778C106.627 14.5762 104.707 17.2503 103.551 22.2956C102.234 28.044 102.717 32.806 103.91 35.8283C105.707 40.3791 107.862 43.2533 113.491 47.2054C116.835 49.5532 119.468 49.9049 123.551 50.0796C129.299 50.3255 131.095 49.4808 135.526 47.2054C142.439 43.6558 145.347 34.99 145.347 34.99H135.167Z" fill="url(#paint1_linear_207_64)"/>
<path d="M155.696 7.80322H165.276V28.4017L180.007 7.80322H191.264L176.534 28.7609L194.498 50.1977H183.36L165.276 29.0005V50.1977H155.696V7.80322Z" fill="#BD34FE"/>
<g filter="url(#filter0_d_207_64)">
<path d="M13.3412 28.3829H4C4 28.3829 4.11056 31.063 4.71855 32.9337C5.32654 34.8045 5.77173 36.2835 6.99396 38.0834C10.5592 43.3335 14.9004 45.4959 21.2452 45.6281C26.6728 45.7412 30.4641 43.82 34.0594 40.5983C36.5986 38.3229 38.765 32.9402 38.8497 30.0595C39.0892 21.916 38.9695 3.11389 38.9695 3.11389H29.5085C29.5085 3.11389 29.8678 19.6406 29.5085 30.0595C29.4425 31.9757 28.1956 33.3598 26.7541 34.6104C24.9998 36.1323 23.1613 36.5265 21.2452 36.5265C19.3291 36.5265 16.5635 34.9228 14.898 32.9337C13.5376 31.309 13.3412 28.3829 13.3412 28.3829Z" fill="white"/>
<path d="M68.1919 0.717651L44.7192 42.7529L56.0963 42.8726L68.5512 20.358L81.0061 42.8726H91.6646L68.1919 0.717651Z" fill="white"/>
<path d="M128.379 28.6231C128.379 28.6231 124.307 34.9438 116.762 34.3715C113.071 34.0915 110.688 32.9743 108.26 30.1799C105.95 27.5227 105.183 25.1965 105.266 21.6771C105.343 18.3772 106.121 16.2876 108.26 13.773C110.93 10.6326 114.556 9.43428 118.679 9.46172C123.828 9.49599 127.9 14.6113 127.9 14.6113L138.319 14.3718C138.319 14.3718 135.445 7.30607 131.133 4.55162C126.497 1.58918 123.462 0.0359538 117.96 0.000804778C112.146 -0.0363334 108.309 1.2062 103.829 4.9109C99.8394 8.20924 97.919 10.8833 96.7628 15.9287C95.4454 21.6771 95.929 26.4391 97.122 29.4614C98.9184 34.0122 101.074 36.8864 106.703 40.8384C110.047 43.1862 112.68 43.538 116.762 43.7126C122.511 43.9586 124.307 43.1138 128.738 40.8384C135.651 37.2888 138.558 28.6231 138.558 28.6231H128.379Z" fill="white"/>
<path d="M148.909 1.43628H158.49V22.0347L173.22 1.43628H184.477L169.747 22.394L187.711 43.8308H176.573L158.49 22.6335V43.8308H148.909V1.43628Z" fill="white"/>
</g>
<defs>
<filter id="filter0_d_207_64" x="0" y="0" width="191.711" height="53.6328" filterUnits="userSpaceOnUse" color-interpolation-filters="sRGB">
<feFlood flood-opacity="0" result="BackgroundImageFix"/>
<feColorMatrix in="SourceAlpha" type="matrix" values="0 0 0 0 0 0 0 0 0 0 0 0 0 0 0 0 0 0 127 0" result="hardAlpha"/>
<feOffset dy="4"/>
<feGaussianBlur stdDeviation="2"/>
<feComposite in2="hardAlpha" operator="out"/>
<feColorMatrix type="matrix" values="0 0 0 0 0 0 0 0 0 0 0 0 0 0 0 0 0 0 0.25 0"/>
<feBlend mode="normal" in2="BackgroundImageFix" result="effect1_dropShadow_207_64"/>
<feBlend mode="normal" in="SourceGraphic" in2="effect1_dropShadow_207_64" result="shape"/>
</filter>
<linearGradient id="paint0_linear_207_64" x1="86.5412" y1="28.1636" x2="98.4512" y2="28.1623" gradientUnits="userSpaceOnUse">
<stop stop-color="#67A1FE"/>
<stop offset="1" stop-color="#BD34FE"/>
</linearGradient>
<linearGradient id="paint1_linear_207_64" x1="75.2754" y1="28.1634" x2="145.347" y2="28.2438" gradientUnits="userSpaceOnUse">
<stop stop-color="#67A1FE"/>
<stop offset="1" stop-color="#BD34FE"/>
</linearGradient>
</defs>
</svg>
