<svg width="30" height="29" viewBox="0 0 30 29" fill="none" xmlns="http://www.w3.org/2000/svg">
<g clip-path="url(#clip0_218_56)">
<path d="M27.5639 22.3498C25.9395 22.3099 24.6805 22.47 23.6246 22.9105C23.32 23.0305 22.8326 23.0306 22.792 23.411C22.9544 23.5712 22.9747 23.8315 23.1169 24.0517C23.3608 24.4521 23.7869 24.9927 24.1728 25.2731C24.5992 25.5934 25.0257 25.9137 25.4723 26.194C26.2643 26.6746 27.1579 26.9548 27.9295 27.4354C28.3763 27.7155 28.8228 28.0761 29.2696 28.3764C29.4929 28.5363 29.635 28.7969 29.9194 28.8969V28.8369C29.7771 28.6566 29.7365 28.3964 29.5945 28.1962C29.3916 27.9959 29.1883 27.8157 28.9852 27.6155C28.3964 26.8348 27.6654 26.154 26.8735 25.5934C26.2238 25.1529 24.8022 24.5523 24.5383 23.8114C24.5383 23.8114 24.5179 23.7915 24.4977 23.7715C24.9444 23.7314 25.4723 23.5712 25.8989 23.4511C26.5892 23.2708 27.2187 23.3109 27.9295 23.1307C28.2543 23.0506 28.5792 22.9505 28.904 22.8504V22.6703C28.5387 22.3099 28.2747 21.8294 27.8888 21.489C26.8532 20.6078 25.716 19.747 24.5383 19.0263C23.9088 18.6258 23.0965 18.3655 22.4264 18.0252C22.183 17.905 21.7767 17.845 21.6346 17.6448C21.269 17.2044 21.0659 16.6238 20.802 16.1032C20.2133 15.0019 19.6446 13.7806 19.1369 12.6195C18.7715 11.8386 18.5481 11.0576 18.1014 10.337C16.0099 6.93329 13.7356 4.87107 10.2431 2.84878C9.49166 2.4284 8.59822 2.24818 7.64385 2.02803C7.13638 2.0079 6.62856 1.96796 6.12097 1.94782C5.79604 1.80766 5.47111 1.42732 5.1868 1.24711C4.02959 0.526249 1.04441 -1.03526 0.191585 1.02696C-0.356734 2.32828 1.00391 3.60957 1.47076 4.27047C1.81624 4.7309 2.26278 5.25141 2.50648 5.77203C2.64863 6.1122 2.68913 6.47286 2.83129 6.83317C3.15634 7.71388 3.46073 8.69516 3.88731 9.51613C4.1107 9.93652 4.35428 10.3769 4.6386 10.7574C4.80106 10.9775 5.08526 11.0778 5.1463 11.4381C4.8621 11.8386 4.84168 12.4393 4.6791 12.9397C3.94812 15.2022 4.23255 18.0052 5.26803 19.6669C5.59285 20.1673 6.36455 21.2688 7.40015 20.8482C8.31402 20.4879 8.11094 19.3467 8.37471 18.3456C8.43587 18.1051 8.39525 17.9451 8.51698 17.7849V17.8251C8.8013 18.3855 9.08549 18.9263 9.3495 19.4868C9.97905 20.4678 11.0755 21.489 11.9892 22.1698C12.4767 22.53 12.8625 23.1507 13.4717 23.371V23.3108H13.431C13.3091 23.1306 13.1263 23.0506 12.964 22.9103C12.5986 22.5501 12.1923 22.1096 11.9081 21.7091C11.0554 20.5878 10.3039 19.3466 9.63381 18.0651C9.309 17.4446 9.02457 16.7638 8.76068 16.1432C8.63871 15.9027 8.63871 15.5425 8.43575 15.4225C8.13113 15.8629 7.68447 16.2433 7.46108 16.7839C7.07546 17.6448 7.03472 18.7059 6.89257 19.807C6.81133 19.8272 6.85183 19.807 6.81122 19.8473C6.16159 19.6868 5.9382 19.0263 5.69439 18.4656C5.08514 17.0442 4.9836 14.7617 5.51173 13.12C5.65389 12.6995 6.26313 11.3781 6.01943 10.9776C5.89758 10.5972 5.49131 10.3769 5.26803 10.0767C5.00414 9.69623 4.71971 9.21589 4.53706 8.79528C4.04966 7.67406 3.80596 6.4327 3.27807 5.31148C3.03437 4.79086 2.60814 4.25045 2.26278 3.76988C1.87704 3.22935 1.45057 2.84878 1.14595 2.20813C1.04453 1.98799 0.902253 1.62756 1.06472 1.38727C1.10533 1.22708 1.18645 1.16713 1.34903 1.12708C1.61304 0.906701 2.36444 1.18703 2.62821 1.30718C3.37961 1.6073 4.00905 1.88787 4.6386 2.30825C4.92279 2.50849 5.22742 2.88894 5.59285 2.98906H6.01932C6.66918 3.12911 7.40004 3.02911 8.00928 3.20921C9.08561 3.5495 10.0602 4.05009 10.9334 4.59074C13.5935 6.25248 15.7864 8.61506 17.2689 11.4381C17.5125 11.8984 17.614 12.3191 17.8374 12.7995C18.264 13.7806 18.7918 14.7817 19.2181 15.7427C19.6446 16.6836 20.0506 17.6448 20.6598 18.4257C20.9645 18.846 22.1827 19.0663 22.731 19.2866C23.1372 19.4667 23.7668 19.627 24.1322 19.8472C24.8225 20.2674 25.5129 20.7482 26.1628 21.2085C26.4877 21.4488 27.5029 21.9494 27.5639 22.3498Z" fill="#00546B"/>
<path d="M6.85193 4.95093C6.50681 4.95093 6.26323 4.99121 6.01953 5.05116V5.09121H6.06015C6.22273 5.41159 6.50681 5.63185 6.70977 5.91207C6.87236 6.23234 7.0144 6.55283 7.17698 6.87321C7.19717 6.85307 7.21748 6.83317 7.21748 6.83317C7.50191 6.63281 7.64395 6.31255 7.64395 5.83198C7.5221 5.69192 7.50179 5.55176 7.40025 5.41159C7.27852 5.21124 7.0144 5.11123 6.85193 4.95093Z" fill="#00546B"/>
</g>
<defs>
<clipPath id="clip0_218_56">
<rect width="30" height="29" fill="white"/>
</clipPath>
</defs>
</svg>
