<svg width="27" height="27" viewBox="0 0 27 27" fill="none" xmlns="http://www.w3.org/2000/svg">
<path d="M9.30241 17.2961C8.85354 18.7727 9.17247 20.8264 10.2348 21.7942V21.7587L10.2702 21.6642C10.4001 21.039 10.9081 20.6492 11.5578 20.6728C12.1593 20.6846 12.5028 21.0036 12.5846 21.6997C12.62 21.9595 12.62 22.2194 12.6318 22.4911V22.5738C12.6318 23.1644 12.7972 23.7306 13.128 24.2267C13.4233 24.6992 13.8367 25.0645 14.3911 25.3126L14.3674 25.2654L14.3438 25.1709C13.9304 23.9314 14.2257 23.0699 15.3116 22.3375L15.6423 22.1131L16.3747 21.6296C16.7953 21.3355 17.1479 20.9546 17.4086 20.5125C17.6693 20.0704 17.832 19.5776 17.8859 19.0672C17.9449 18.6183 17.8859 18.1812 17.7559 17.7568L17.5788 17.875C15.9377 18.7482 14.0603 19.0562 12.242 18.7018C11.1443 18.5356 10.082 18.2293 9.2906 17.308L9.30241 17.2961Z" fill="url(#paint0_linear_218_27)"/>
<path d="M4.15527 17.0362C4.15527 17.0362 7.30752 15.5005 10.4716 15.5005L12.8678 8.11013C12.9505 7.75575 13.2104 7.5195 13.5057 7.5195C13.801 7.5195 14.0491 7.75575 14.1436 8.12194L16.528 15.5014C20.2827 15.5014 22.8452 17.037 22.8452 17.037L17.473 2.39625C17.3313 1.95919 17.0596 1.6875 16.717 1.6875H10.2944C9.95184 1.6875 9.70377 1.95919 9.5384 2.39625L4.15527 17.0362Z" fill="white"/>
<defs>
<linearGradient id="paint0_linear_218_27" x1="9.10182" y1="25.3007" x2="19.3972" y2="20.4482" gradientUnits="userSpaceOnUse">
<stop stop-color="#D83333"/>
<stop offset="1" stop-color="#F041FF"/>
</linearGradient>
</defs>
</svg>
