<svg width="69" height="57" viewBox="0 0 69 57" fill="none" xmlns="http://www.w3.org/2000/svg">
<path d="M62.9568 26.52H33.6796C32.8429 26.52 24.4784 15.5761 26.9886 11.3672C29.4987 7.15837 32.0073 6.68655 35.3535 6.31639C38.6997 5.94623 42.599 -1.88106 49.5735 0.424003C54.6638 2.10634 54.4839 5.75684 59.1436 8.41802C63.7247 11.0343 65.38 9.28037 67.9763 13.8926C70.7929 18.8962 63.793 26.52 62.9568 26.52Z" fill="url(#paint0_linear_208_149)"/>
<path d="M51.2807 39.0001H10.0758C8.89812 39.0001 -2.87408 23.5499 0.658742 17.6079C4.19157 11.666 7.72216 10.9999 12.4316 10.4773C17.141 9.95474 22.629 -1.09555 32.4449 2.15865C39.609 4.53371 39.3559 9.68737 45.914 13.4443C52.3615 17.1379 54.6911 14.6618 58.3451 21.1731C62.3092 28.237 52.4575 39.0001 51.2807 39.0001Z" fill="#BED7FF" fill-opacity="0.9"/>
<path d="M4.75852 54V45.2727H8.25284C8.89489 45.2727 9.4304 45.3679 9.85938 45.5582C10.2884 45.7486 10.6108 46.0128 10.8267 46.3509C11.0426 46.6861 11.1506 47.0724 11.1506 47.5099C11.1506 47.8509 11.0824 48.1506 10.946 48.4091C10.8097 48.6648 10.6222 48.875 10.3835 49.0398C10.1477 49.2017 9.87784 49.3168 9.57386 49.3849V49.4702C9.90625 49.4844 10.2173 49.5781 10.5071 49.7514C10.7997 49.9247 11.0369 50.1676 11.2188 50.4801C11.4006 50.7898 11.4915 51.1591 11.4915 51.5881C11.4915 52.0511 11.3764 52.4645 11.1463 52.8281C10.919 53.1889 10.5824 53.4744 10.1364 53.6847C9.69034 53.8949 9.14063 54 8.48722 54H4.75852ZM6.60369 52.4915H8.10795C8.62216 52.4915 8.99716 52.3935 9.23295 52.1974C9.46875 51.9986 9.58665 51.7344 9.58665 51.4048C9.58665 51.1634 9.52841 50.9503 9.41193 50.7656C9.29545 50.581 9.12926 50.4361 8.91335 50.331C8.70028 50.2259 8.44602 50.1733 8.15057 50.1733H6.60369V52.4915ZM6.60369 48.9247H7.97159C8.22443 48.9247 8.44886 48.8807 8.64489 48.7926C8.84375 48.7017 9 48.5739 9.11364 48.4091C9.23011 48.2443 9.28835 48.0469 9.28835 47.8168C9.28835 47.5014 9.17614 47.2472 8.9517 47.054C8.73011 46.8608 8.41477 46.7642 8.00568 46.7642H6.60369V48.9247ZM14.5245 54.1236C14.1069 54.1236 13.7347 54.0511 13.408 53.9062C13.0813 53.7585 12.8228 53.5412 12.6325 53.2543C12.445 52.9645 12.3512 52.6037 12.3512 52.1719C12.3512 51.8082 12.418 51.5028 12.5515 51.2557C12.685 51.0085 12.8668 50.8097 13.0969 50.6591C13.3271 50.5085 13.5884 50.3949 13.881 50.3182C14.1765 50.2415 14.4862 50.1875 14.81 50.1562C15.1907 50.1165 15.4975 50.0795 15.7305 50.0455C15.9634 50.0085 16.1325 49.9545 16.2376 49.8835C16.3427 49.8125 16.3952 49.7074 16.3952 49.5682V49.5426C16.3952 49.2727 16.31 49.0639 16.1396 48.9162C15.9719 48.7685 15.7333 48.6946 15.4237 48.6946C15.0969 48.6946 14.837 48.767 14.6438 48.9119C14.4506 49.054 14.3228 49.233 14.2603 49.4489L12.5813 49.3125C12.6665 48.9148 12.8342 48.571 13.0842 48.2812C13.3342 47.9886 13.6566 47.7642 14.0515 47.608C14.4492 47.4489 14.9094 47.3693 15.4322 47.3693C15.7958 47.3693 16.1438 47.4119 16.4762 47.4972C16.8114 47.5824 17.1083 47.7145 17.3668 47.8935C17.6282 48.0724 17.8342 48.3026 17.9847 48.5838C18.1353 48.8622 18.2106 49.196 18.2106 49.5852V54H16.489V53.0923H16.4379C16.3327 53.2969 16.1921 53.4773 16.016 53.6335C15.8398 53.7869 15.6282 53.9077 15.381 53.9957C15.1339 54.081 14.8484 54.1236 14.5245 54.1236ZM15.0444 52.8707C15.3114 52.8707 15.5472 52.8182 15.7518 52.7131C15.9563 52.6051 16.1168 52.4602 16.2333 52.2784C16.3498 52.0966 16.408 51.8906 16.408 51.6605V50.9659C16.3512 51.0028 16.2731 51.0369 16.1737 51.0682C16.0771 51.0966 15.9677 51.1236 15.8455 51.1491C15.7234 51.1719 15.6012 51.1932 15.479 51.2131C15.3569 51.2301 15.2461 51.2457 15.1467 51.2599C14.9336 51.2912 14.7475 51.3409 14.5884 51.4091C14.4293 51.4773 14.3058 51.5696 14.2177 51.6861C14.1296 51.7997 14.0856 51.9418 14.0856 52.1122C14.0856 52.3594 14.1751 52.5483 14.354 52.679C14.5359 52.8068 14.766 52.8707 15.0444 52.8707ZM22.5763 54.1278C21.9059 54.1278 21.3292 53.9858 20.8462 53.7017C20.3661 53.4148 19.9968 53.017 19.7383 52.5085C19.4826 52 19.3548 51.4148 19.3548 50.7528C19.3548 50.0824 19.484 49.4943 19.7425 48.9886C20.0039 48.4801 20.3746 48.0838 20.8548 47.7997C21.3349 47.5128 21.9059 47.3693 22.5678 47.3693C23.1388 47.3693 23.6388 47.473 24.0678 47.6804C24.4968 47.8878 24.8363 48.179 25.0863 48.554C25.3363 48.929 25.4741 49.3693 25.4996 49.875H23.7866C23.7383 49.5483 23.6104 49.2855 23.4031 49.0866C23.1985 48.8849 22.93 48.7841 22.5977 48.7841C22.3164 48.7841 22.0707 48.8608 21.8604 49.0142C21.6531 49.1648 21.4911 49.3849 21.3746 49.6747C21.2582 49.9645 21.1999 50.3153 21.1999 50.7273C21.1999 51.1449 21.2567 51.5 21.3704 51.7926C21.4869 52.0852 21.6502 52.3082 21.8604 52.4616C22.0707 52.6151 22.3164 52.6918 22.5977 52.6918C22.805 52.6918 22.9911 52.6491 23.1559 52.5639C23.3235 52.4787 23.4613 52.3551 23.5692 52.1932C23.68 52.0284 23.7525 51.831 23.7866 51.6009H25.4996C25.4712 52.1009 25.3349 52.5412 25.0906 52.9219C24.8491 53.2997 24.5153 53.5952 24.0891 53.8082C23.663 54.0213 23.1587 54.1278 22.5763 54.1278ZM28.3068 52.1165L28.3111 49.9389H28.5753L30.6719 47.4545H32.7557L29.9389 50.7443H29.5085L28.3068 52.1165ZM26.6619 54V45.2727H28.4773V54H26.6619ZM30.7528 54L28.8267 51.1491L30.0369 49.8665L32.8793 54H30.7528ZM36.3597 54.1278C35.6864 54.1278 35.1069 53.9915 34.6211 53.7188C34.1381 53.4432 33.766 53.054 33.5046 52.5511C33.2433 52.0455 33.1126 51.4474 33.1126 50.7571C33.1126 50.0838 33.2433 49.4929 33.5046 48.9844C33.766 48.4759 34.1339 48.0795 34.6083 47.7955C35.0856 47.5114 35.6452 47.3693 36.2873 47.3693C36.7191 47.3693 37.1211 47.4389 37.4933 47.5781C37.8683 47.7145 38.195 47.9205 38.4734 48.196C38.7546 48.4716 38.9734 48.8182 39.1296 49.2358C39.2859 49.6506 39.364 50.1364 39.364 50.6932V51.1918H33.837V50.0668H37.6552C37.6552 49.8054 37.5984 49.5739 37.4847 49.3722C37.3711 49.1705 37.2134 49.0128 37.0117 48.8991C36.8129 48.7827 36.5813 48.7244 36.3171 48.7244C36.0415 48.7244 35.7972 48.7884 35.5842 48.9162C35.3739 49.0412 35.2092 49.2102 35.0898 49.4233C34.9705 49.6335 34.9094 49.8679 34.9066 50.1264V51.196C34.9066 51.5199 34.9663 51.7997 35.0856 52.0355C35.2077 52.2713 35.3796 52.4531 35.6012 52.581C35.8228 52.7088 36.0856 52.7727 36.3896 52.7727C36.5913 52.7727 36.7759 52.7443 36.9435 52.6875C37.1112 52.6307 37.2546 52.5455 37.3739 52.4318C37.4933 52.3182 37.5842 52.179 37.6467 52.0142L39.3256 52.125C39.2404 52.5284 39.0657 52.8807 38.8015 53.1818C38.5401 53.4801 38.2021 53.7131 37.7873 53.8807C37.3754 54.0455 36.8995 54.1278 36.3597 54.1278ZM42.364 50.2159V54H40.5487V47.4545H42.2788V48.6094H42.3555C42.5004 48.2287 42.7433 47.9276 43.0842 47.706C43.4251 47.4815 43.8384 47.3693 44.3242 47.3693C44.7788 47.3693 45.1751 47.4688 45.5131 47.6676C45.8512 47.8665 46.114 48.1506 46.3015 48.5199C46.489 48.8864 46.5827 49.3239 46.5827 49.8324V54H44.7674V50.1562C44.7702 49.7557 44.668 49.4432 44.4606 49.2188C44.2532 48.9915 43.9677 48.8778 43.604 48.8778C43.3597 48.8778 43.1438 48.9304 42.9563 49.0355C42.7717 49.1406 42.6268 49.294 42.5217 49.4957C42.4194 49.6946 42.3668 49.9347 42.364 50.2159ZM50.4254 54.1065C49.9283 54.1065 49.478 53.9787 49.0746 53.723C48.674 53.4645 48.3558 53.0852 48.12 52.5852C47.8871 52.0824 47.7706 51.4659 47.7706 50.7358C47.7706 49.9858 47.8913 49.3622 48.1328 48.8651C48.3743 48.3651 48.6953 47.9915 49.0959 47.7443C49.4993 47.4943 49.9411 47.3693 50.4212 47.3693C50.7876 47.3693 51.093 47.4318 51.3374 47.5568C51.5845 47.679 51.7834 47.8324 51.9339 48.017C52.0874 48.1989 52.2038 48.3778 52.2834 48.554H52.3388V45.2727H54.1499V54H52.3601V52.9517H52.2834C52.1982 53.1335 52.0774 53.3139 51.9212 53.4929C51.7678 53.669 51.5675 53.8153 51.3203 53.9318C51.076 54.0483 50.7777 54.1065 50.4254 54.1065ZM51.0007 52.6619C51.2933 52.6619 51.5405 52.5824 51.7422 52.4233C51.9467 52.2614 52.103 52.0355 52.2109 51.7457C52.3217 51.456 52.3771 51.1165 52.3771 50.7273C52.3771 50.3381 52.3232 50 52.2152 49.7131C52.1072 49.4261 51.951 49.2045 51.7464 49.0483C51.5419 48.892 51.2933 48.8139 51.0007 48.8139C50.7024 48.8139 50.451 48.8949 50.2464 49.0568C50.0419 49.2187 49.8871 49.4432 49.782 49.7301C49.6768 50.017 49.6243 50.3494 49.6243 50.7273C49.6243 51.108 49.6768 51.4446 49.782 51.7372C49.8899 52.027 50.0447 52.2543 50.2464 52.419C50.451 52.581 50.7024 52.6619 51.0007 52.6619Z" fill="white"/>
<defs>
<linearGradient id="paint0_linear_208_149" x1="28.6616" y1="0.42378" x2="72.2961" y2="25.4387" gradientUnits="userSpaceOnUse">
<stop stop-color="#67A1FE"/>
<stop offset="1" stop-color="#BD34FE"/>
</linearGradient>
</defs>
</svg>
