<svg width="33" height="24" viewBox="0 0 33 24" fill="none" xmlns="http://www.w3.org/2000/svg">
<g clip-path="url(#clip0_245_2)">
<path d="M32.2485 9.14556C31.5087 8.62664 29.8133 8.43204 28.4879 8.6915C28.3339 7.39421 27.6249 6.2592 26.3919 5.25379L25.683 4.73488L25.1897 5.48082C24.5734 6.4538 24.2651 7.81596 24.3575 9.11325C24.3883 9.56718 24.5424 10.378 25.0048 11.0915C24.5734 11.351 23.6794 11.6753 22.5082 11.6753H0.222405L0.160806 11.9347C-0.0550442 13.2319 -0.0550444 17.2858 2.47254 20.3992C4.38363 22.7667 7.21946 23.9667 10.9491 23.9667C19.0249 23.9667 25.0048 20.0423 27.8098 12.94C28.9195 12.9725 31.293 12.94 32.4952 10.5076C32.526 10.4427 32.5876 10.313 32.8033 9.82664L32.9266 9.56718L32.2485 9.14556ZM18.0386 0H14.6481V3.24311H18.0386V0ZM18.0386 3.89176H14.6481V7.13488H18.0386V3.89176ZM14.0315 3.89176H10.641V7.13488H14.0315V3.89176ZM10.0244 3.89176H6.63376V7.13488H10.0244V3.89176ZM6.01726 7.78352H2.62666V11.0266H6.01714L6.01726 7.78352ZM10.0244 7.78352H6.63376V11.0266H10.0244V7.78352ZM14.0315 7.78352H10.641V11.0266H14.0315V7.78352ZM18.0387 7.78352H14.648V11.0266H18.0387V7.78352ZM22.0458 7.78352H18.6551V11.0266H22.0458V7.78352Z" fill="#2396ED"/>
</g>
<defs>
<clipPath id="clip0_245_2">
<rect width="33" height="24" fill="white"/>
</clipPath>
</defs>
</svg>
