<svg width="29" height="29" viewBox="0 0 29 29" fill="none" xmlns="http://www.w3.org/2000/svg">
<g clip-path="url(#clip0_218_95)">
<path d="M10.3086 29.2266C13.0047 29.2266 15.1797 27.0516 15.1797 24.3555V19.4844H10.3086C7.6125 19.4844 5.4375 21.6594 5.4375 24.3555C5.4375 27.0516 7.6125 29.2266 10.3086 29.2266Z" fill="#0ACF83"/>
<path d="M5.4375 14.6133C5.4375 11.9172 7.6125 9.74219 10.3086 9.74219H15.1797V19.4844H10.3086C7.6125 19.4844 5.4375 17.3094 5.4375 14.6133Z" fill="#A259FF"/>
<path d="M5.4375 4.87109C5.4375 2.175 7.6125 0 10.3086 0H15.1797V9.74219H10.3086C7.6125 9.74219 5.4375 7.56719 5.4375 4.87109Z" fill="#F24E1E"/>
<path d="M15.1797 0H20.0508C22.7469 0 24.9219 2.175 24.9219 4.87109C24.9219 7.56719 22.7469 9.74219 20.0508 9.74219H15.1797V0Z" fill="#FF7262"/>
<path d="M24.9219 14.6133C24.9219 17.3094 22.7469 19.4844 20.0508 19.4844C17.3547 19.4844 15.1797 17.3094 15.1797 14.6133C15.1797 11.9172 17.3547 9.74219 20.0508 9.74219C22.7469 9.74219 24.9219 11.9172 24.9219 14.6133Z" fill="#1ABCFE"/>
</g>
<defs>
<clipPath id="clip0_218_95">
<rect width="29" height="29" fill="white"/>
</clipPath>
</defs>
</svg>
