<svg width="202" height="51" viewBox="0 0 202 51" fill="none" xmlns="http://www.w3.org/2000/svg">
<path d="M10.2394 31.1121H0C0 31.1121 0.12119 34.0499 0.787643 36.1005C1.4541 38.1511 1.9421 39.7724 3.28185 41.7453C7.18987 47.5003 11.9485 49.8706 18.9034 50.0155C24.8529 50.1395 29.0087 48.0336 32.9497 44.502C35.7331 42.0078 38.1078 36.1076 38.2007 32.9499C38.4632 24.0233 38.332 3.41333 38.332 3.41333H27.9613C27.9613 3.41333 28.3551 21.5291 27.9613 32.9499C27.8889 35.0503 26.5222 36.5676 24.942 37.9384C23.019 39.6066 21.0038 40.0387 18.9034 40.0387C16.8031 40.0387 13.7716 38.2809 11.9459 36.1005C10.4547 34.3196 10.2394 31.1121 10.2394 31.1121Z" fill="#67A1FE"/>
<path d="M70.3625 0.786743L44.6328 46.8639L57.1038 46.9951L70.7563 22.3157L84.4088 46.9951H96.0922L70.3625 0.786743Z" fill="url(#paint0_linear_207_76)"/>
<path d="M136.339 31.3753C136.339 31.3753 131.876 38.3038 123.605 37.6765C119.559 37.3695 116.947 36.145 114.285 33.0819C111.754 30.1691 110.912 27.6193 111.003 23.7614C111.088 20.1443 111.941 17.8538 114.285 15.0974C117.212 11.6549 121.187 10.3414 125.706 10.3715C131.351 10.4091 135.814 16.0163 135.814 16.0163L147.235 15.7537C147.235 15.7537 144.084 8.00858 139.358 4.98928C134.276 1.74199 130.95 0.0394109 124.918 0.000882162C118.546 -0.039827 114.339 1.32219 109.428 5.38311C105.055 8.99861 102.95 11.9298 101.683 17.4603C100.239 23.7614 100.769 28.9813 102.077 32.2942C104.046 37.2827 106.409 40.4332 112.578 44.7653C116.244 47.3388 119.131 47.7244 123.605 47.9158C129.907 48.1854 131.876 47.2595 136.733 44.7653C144.31 40.8743 147.497 31.3753 147.497 31.3753H136.339Z" fill="url(#paint1_linear_207_76)"/>
<path d="M158.841 1.57434H169.343V24.1534L185.489 1.57434H197.829L181.682 24.5473L201.374 48.0453H189.165L169.343 24.8098V48.0453H158.841V1.57434Z" fill="#BD34FE"/>
<defs>
<linearGradient id="paint0_linear_207_76" x1="83.037" y1="23.8924" x2="96.0922" y2="23.8909" gradientUnits="userSpaceOnUse">
<stop stop-color="#67A1FE"/>
<stop offset="1" stop-color="#BD34FE"/>
</linearGradient>
<linearGradient id="paint1_linear_207_76" x1="70.6884" y1="23.8923" x2="147.497" y2="23.9804" gradientUnits="userSpaceOnUse">
<stop stop-color="#67A1FE"/>
<stop offset="1" stop-color="#BD34FE"/>
</linearGradient>
</defs>
</svg>
