<svg width="63" height="75" viewBox="0 0 63 75" fill="none" xmlns="http://www.w3.org/2000/svg">
<path d="M32.468 30.4157C32.468 30.4157 25.4498 29.2064 24.7851 27.6324C24.1204 26.0584 28.1474 20.1847 28.1474 20.1847M38.4689 32.5182L37.531 11.5853M42.743 14.021C42.743 14.021 49.1384 15.9569 49.6369 17.1374C50.1355 18.3179 47.0635 24.2519 47.0635 24.2519M13.7787 16.9792C14.2354 15.8588 48.6859 1.31038 49.6758 1.81978C50.6657 2.32919 61.5985 27.851 61.1419 28.9711C60.6852 30.0912 26.5324 44.9777 25.2447 44.1305C23.9571 43.2834 13.322 18.0996 13.7787 16.9792Z" stroke="url(#paint0_linear_208_148)" stroke-width="2"/>
<path d="M49.1796 23.7676C48.3836 22.8278 6.67207 22.8277 5.71663 23.7676C4.76119 24.7075 4.76115 54.7785 5.71663 56.188C6.67211 57.5975 48.2244 57.1276 49.1796 56.188C50.1349 55.2484 49.9757 24.7074 49.1796 23.7676Z" fill="#BED7FF" fill-opacity="0.9"/>
<path d="M0.758523 71.8079V63.0806H6.53693V64.6019H2.60369V66.6814H6.15341V68.2027H2.60369V71.8079H0.758523ZM7.63849 71.8079V65.2624H9.39844V66.4045H9.46662C9.58594 65.9982 9.78622 65.6914 10.0675 65.484C10.3487 65.2738 10.6726 65.1687 11.0391 65.1687C11.13 65.1687 11.228 65.1743 11.3331 65.1857C11.4382 65.1971 11.5305 65.2127 11.6101 65.2326V66.8434C11.5249 66.8178 11.407 66.7951 11.2564 66.7752C11.1058 66.7553 10.968 66.7454 10.843 66.7454C10.576 66.7454 10.3374 66.8036 10.1271 66.9201C9.91974 67.0337 9.75497 67.1928 9.63281 67.3973C9.51349 67.6019 9.45384 67.8377 9.45384 68.1047V71.8079H7.63849ZM15.2013 71.9357C14.5394 71.9357 13.967 71.7951 13.484 71.5138C13.0039 71.2297 12.6332 70.8348 12.3718 70.3292C12.1104 69.8206 11.9798 69.2312 11.9798 68.5607C11.9798 67.8846 12.1104 67.2937 12.3718 66.788C12.6332 66.2795 13.0039 65.8846 13.484 65.6033C13.967 65.3192 14.5394 65.1772 15.2013 65.1772C15.8633 65.1772 16.4343 65.3192 16.9144 65.6033C17.3974 65.8846 17.7695 66.2795 18.0309 66.788C18.2923 67.2937 18.4229 67.8846 18.4229 68.5607C18.4229 69.2312 18.2923 69.8206 18.0309 70.3292C17.7695 70.8348 17.3974 71.2297 16.9144 71.5138C16.4343 71.7951 15.8633 71.9357 15.2013 71.9357ZM15.2099 70.5295C15.511 70.5295 15.7624 70.4442 15.9641 70.2738C16.1658 70.1005 16.3178 69.8647 16.4201 69.5664C16.5252 69.2681 16.5778 68.9286 16.5778 68.5479C16.5778 68.1672 16.5252 67.8277 16.4201 67.5295C16.3178 67.2312 16.1658 66.9954 15.9641 66.8221C15.7624 66.6488 15.511 66.5621 15.2099 66.5621C14.9059 66.5621 14.6502 66.6488 14.4428 66.8221C14.2383 66.9954 14.0835 67.2312 13.9783 67.5295C13.8761 67.8277 13.8249 68.1672 13.8249 68.5479C13.8249 68.9286 13.8761 69.2681 13.9783 69.5664C14.0835 69.8647 14.2383 70.1005 14.4428 70.2738C14.6502 70.4442 14.9059 70.5295 15.2099 70.5295ZM21.4187 68.0238V71.8079H19.6033V65.2624H21.3335V66.4172H21.4102C21.555 66.0366 21.7979 65.7354 22.1388 65.5138C22.4798 65.2894 22.8931 65.1772 23.3789 65.1772C23.8335 65.1772 24.2298 65.2766 24.5678 65.4755C24.9059 65.6743 25.1687 65.9584 25.3562 66.3277C25.5437 66.6942 25.6374 67.1317 25.6374 67.6402V71.8079H23.8221V67.9641C23.8249 67.5635 23.7227 67.251 23.5153 67.0266C23.3079 66.7993 23.0224 66.6857 22.6587 66.6857C22.4144 66.6857 22.1985 66.7383 22.011 66.8434C21.8263 66.9485 21.6815 67.1019 21.5763 67.3036C21.4741 67.5025 21.4215 67.7425 21.4187 68.0238ZM30.5497 65.2624V66.626H26.608V65.2624H30.5497ZM27.5028 63.6942H29.3182V69.7965C29.3182 69.9641 29.3438 70.0948 29.3949 70.1885C29.446 70.2795 29.517 70.3434 29.608 70.3803C29.7017 70.4172 29.8097 70.4357 29.9318 70.4357C30.017 70.4357 30.1023 70.4286 30.1875 70.4144C30.2727 70.3973 30.3381 70.3846 30.3835 70.376L30.669 71.7269C30.5781 71.7553 30.4503 71.788 30.2855 71.8249C30.1207 71.8647 29.9205 71.8888 29.6847 71.8973C29.2472 71.9144 28.8636 71.8562 28.5341 71.7226C28.2074 71.5891 27.9531 71.3817 27.7713 71.1005C27.5895 70.8192 27.5 70.4641 27.5028 70.0351V63.6942ZM34.6449 71.9357C33.9716 71.9357 33.392 71.7993 32.9062 71.5266C32.4233 71.251 32.0511 70.8618 31.7898 70.359C31.5284 69.8533 31.3977 69.2553 31.3977 68.565C31.3977 67.8917 31.5284 67.3008 31.7898 66.7922C32.0511 66.2837 32.419 65.8874 32.8935 65.6033C33.3707 65.3192 33.9304 65.1772 34.5724 65.1772C35.0043 65.1772 35.4063 65.2468 35.7784 65.386C36.1534 65.5223 36.4801 65.7283 36.7585 66.0039C37.0398 66.2795 37.2585 66.626 37.4148 67.0437C37.571 67.4584 37.6491 67.9442 37.6491 68.501V68.9996H32.1222V67.8746H35.9403C35.9403 67.6133 35.8835 67.3817 35.7699 67.18C35.6563 66.9783 35.4986 66.8206 35.2969 66.707C35.098 66.5905 34.8665 66.5323 34.6023 66.5323C34.3267 66.5323 34.0824 66.5962 33.8693 66.7241C33.6591 66.8491 33.4943 67.0181 33.375 67.2312C33.2557 67.4414 33.1946 67.6758 33.1918 67.9343V69.0039C33.1918 69.3277 33.2514 69.6076 33.3707 69.8434C33.4929 70.0792 33.6648 70.261 33.8864 70.3888C34.108 70.5167 34.3707 70.5806 34.6747 70.5806C34.8764 70.5806 35.0611 70.5522 35.2287 70.4954C35.3963 70.4385 35.5398 70.3533 35.6591 70.2397C35.7784 70.126 35.8693 69.9868 35.9318 69.8221L37.6108 69.9329C37.5256 70.3363 37.3509 70.6885 37.0866 70.9897C36.8253 71.288 36.4872 71.5209 36.0724 71.6885C35.6605 71.8533 35.1847 71.9357 34.6449 71.9357ZM40.6491 68.0238V71.8079H38.8338V65.2624H40.5639V66.4172H40.6406C40.7855 66.0366 41.0284 65.7354 41.3693 65.5138C41.7102 65.2894 42.1236 65.1772 42.6094 65.1772C43.0639 65.1772 43.4602 65.2766 43.7983 65.4755C44.1364 65.6743 44.3991 65.9584 44.5866 66.3277C44.7741 66.6942 44.8679 67.1317 44.8679 67.6402V71.8079H43.0526V67.9641C43.0554 67.5635 42.9531 67.251 42.7457 67.0266C42.5384 66.7993 42.2528 66.6857 41.8892 66.6857C41.6449 66.6857 41.429 66.7383 41.2415 66.8434C41.0568 66.9485 40.9119 67.1019 40.8068 67.3036C40.7045 67.5025 40.652 67.7425 40.6491 68.0238ZM48.7106 71.9144C48.2134 71.9144 47.7631 71.7866 47.3597 71.5309C46.9592 71.2723 46.641 70.8931 46.4052 70.3931C46.1722 69.8902 46.0558 69.2738 46.0558 68.5437C46.0558 67.7937 46.1765 67.1701 46.418 66.6729C46.6594 66.1729 46.9805 65.7993 47.381 65.5522C47.7844 65.3022 48.2262 65.1772 48.7063 65.1772C49.0728 65.1772 49.3782 65.2397 49.6225 65.3647C49.8697 65.4868 50.0685 65.6402 50.2191 65.8249C50.3725 66.0067 50.489 66.1857 50.5685 66.3618H50.6239V63.0806H52.435V71.8079H50.6452V70.7596H50.5685C50.4833 70.9414 50.3626 71.1218 50.2063 71.3008C50.0529 71.4769 49.8526 71.6232 49.6055 71.7397C49.3612 71.8562 49.0629 71.9144 48.7106 71.9144ZM49.2859 70.4698C49.5785 70.4698 49.8256 70.3902 50.0273 70.2312C50.2319 70.0692 50.3881 69.8434 50.4961 69.5536C50.6069 69.2638 50.6623 68.9243 50.6623 68.5351C50.6623 68.1459 50.6083 67.8079 50.5004 67.5209C50.3924 67.234 50.2362 67.0124 50.0316 66.8562C49.8271 66.6999 49.5785 66.6218 49.2859 66.6218C48.9876 66.6218 48.7362 66.7027 48.5316 66.8647C48.3271 67.0266 48.1722 67.251 48.0671 67.538C47.962 67.8249 47.9094 68.1573 47.9094 68.5351C47.9094 68.9158 47.962 69.2525 48.0671 69.5451C48.1751 69.8348 48.3299 70.0621 48.5316 70.2269C48.7362 70.3888 48.9876 70.4698 49.2859 70.4698Z" fill="white"/>
<defs>
<linearGradient id="paint0_linear_208_148" x1="16.4878" y1="15.1396" x2="61.9477" y2="29.4227" gradientUnits="userSpaceOnUse">
<stop stop-color="#67A1FE"/>
<stop offset="1" stop-color="#BD34FE"/>
</linearGradient>
</defs>
</svg>
