<svg width="29" height="29" viewBox="0 0 29 29" fill="none" xmlns="http://www.w3.org/2000/svg">
<g clip-path="url(#clip0_218_93)">
<path d="M28.2609 13.2263L15.7737 0.739527C15.055 0.020418 13.8887 0.020418 13.1689 0.739527L10.5761 3.33276L13.8654 6.622C14.63 6.36394 15.5064 6.53703 16.1156 7.14626C16.728 7.75934 16.8997 8.64316 16.6353 9.4103L19.8054 12.5806C20.5723 12.3162 21.4575 12.487 22.0696 13.1006C22.926 13.9563 22.926 15.3435 22.0696 16.1997C21.8661 16.4033 21.6245 16.5648 21.3585 16.675C21.0926 16.7852 20.8075 16.842 20.5196 16.842C20.2317 16.842 19.9467 16.7852 19.6807 16.675C19.4147 16.5648 19.1731 16.4033 18.9696 16.1997C18.6639 15.8937 18.4555 15.5041 18.3707 15.08C18.2858 14.6559 18.3282 14.2161 18.4927 13.816L15.5365 10.8598L15.536 18.6402C15.7505 18.7458 15.9464 18.8857 16.1158 19.0544C16.9718 19.9101 16.9718 21.2969 16.1158 22.1544C15.2596 23.0102 13.8719 23.0102 13.0167 22.1544C12.1607 21.2971 12.1607 19.9103 13.0167 19.0544C13.2219 18.8492 13.4658 18.6867 13.7342 18.5763V10.7239C13.4655 10.614 13.2215 10.4514 13.0167 10.2456C12.3682 9.59767 12.2121 8.6461 12.5447 7.84951L9.30194 4.60672L0.739686 13.1685C0.39425 13.5141 0.200195 13.9827 0.200195 14.4713C0.200195 14.9599 0.39425 15.4284 0.739686 15.774L13.2271 28.2608C13.9462 28.9799 15.1121 28.9799 15.8324 28.2608L28.2611 15.832C28.6065 15.4863 28.8005 15.0177 28.8004 14.5291C28.8004 14.0405 28.6063 13.5719 28.2609 13.2263Z" fill="#F34F29"/>
</g>
<defs>
<clipPath id="clip0_218_93">
<rect width="29" height="29" fill="white"/>
</clipPath>
</defs>
</svg>
