<svg width="9" height="19" viewBox="0 0 9 19" fill="none" xmlns="http://www.w3.org/2000/svg">
<g clip-path="url(#clip0_218_54)">
<path d="M6.16129 2.11484C5.35871 1.17 4.66756 0.210343 4.52637 0.0110678C4.52302 0.00757049 4.51898 0.00478611 4.51451 0.00288357C4.51003 0.000981032 4.50522 0 4.50035 0C4.49549 0 4.49067 0.000981032 4.4862 0.00288357C4.48172 0.00478611 4.47769 0.00757049 4.47433 0.0110678C4.33314 0.210377 3.642 1.17 2.83938 2.11484C-4.0496 10.8326 3.92442 16.7158 3.92442 16.7158L3.99128 16.7601C4.05072 17.668 4.19937 18.9746 4.19937 18.9746H4.7939C4.7939 18.9746 4.94249 17.6754 5.00196 16.7601L5.06886 16.7084C5.07628 16.7158 13.0503 10.8326 6.16129 2.11484ZM4.49662 16.5829C4.49662 16.5829 4.1399 16.2803 4.04329 16.1253V16.1105L4.47433 6.61767C4.47433 6.58815 4.51894 6.58815 4.51894 6.61767L4.94995 16.1105V16.1253C4.85333 16.2803 4.49662 16.5829 4.49662 16.5829" fill="#01EC64"/>
</g>
<defs>
<clipPath id="clip0_218_54">
<rect width="9" height="19" fill="white"/>
</clipPath>
</defs>
</svg>
