<svg width="32" height="36" viewBox="0 0 32 36" fill="none" xmlns="http://www.w3.org/2000/svg">
<g clip-path="url(#clip0_218_52)">
<path d="M15.9999 35.9332C15.5054 35.9332 15.0438 35.8011 14.6152 35.5701L10.2301 32.9621C9.57069 32.599 9.90038 32.467 10.0982 32.4009C10.9884 32.1038 11.1532 32.0378 12.0763 31.5095C12.1754 31.4435 12.3073 31.4765 12.406 31.5425L15.7691 33.5563C15.901 33.6223 16.0659 33.6223 16.1648 33.5563L29.3201 25.9307C29.452 25.8646 29.5179 25.7326 29.5179 25.5675V10.349C29.5179 10.184 29.452 10.0519 29.3201 9.98589L16.1648 2.39313C16.0329 2.32711 15.868 2.32711 15.7691 2.39313L2.61382 9.98601C2.48194 10.052 2.41601 10.2171 2.41601 10.3491V25.5675C2.41601 25.6996 2.48194 25.8646 2.61382 25.9307L6.20771 28.0103C8.15302 29.0006 9.37275 27.8453 9.37275 26.6899V11.6694C9.37275 11.4714 9.53772 11.2733 9.7685 11.2733H11.4501C11.6479 11.2733 11.8457 11.4383 11.8457 11.6694V26.6898C11.8457 29.2977 10.4279 30.8162 7.95508 30.8162C7.19678 30.8162 6.60334 30.8162 4.92191 29.9909L1.4599 28.0103C0.602702 27.515 0.0751953 26.5907 0.0751953 25.6004V10.3821C0.0751953 9.39183 0.602702 8.46754 1.4599 7.97226L14.6152 0.346609C15.4395 -0.115536 16.5604 -0.115536 17.3846 0.346609L30.5399 7.97226C31.3971 8.46741 31.9247 9.3917 31.9247 10.3821V25.6005C31.9247 26.5909 31.3971 27.5151 30.5399 28.0103L17.3846 35.6362C16.956 35.8343 16.4615 35.9333 15.9999 35.9333M20.0553 25.4685C14.2854 25.4685 13.0985 22.8277 13.0985 20.5828C13.0985 20.3848 13.2634 20.1867 13.4941 20.1867H15.2085C15.4064 20.1867 15.5713 20.3188 15.5713 20.5168C15.8351 22.2664 16.5934 23.1248 20.0882 23.1248C22.8578 23.1248 24.0448 22.4976 24.0448 21.0121C24.0448 20.1537 23.7151 19.5265 19.3959 19.0973C15.8021 18.7341 13.5601 17.9419 13.5601 15.07C13.5601 12.3959 15.802 10.8114 19.5607 10.8114C23.7809 10.8114 25.8581 12.2639 26.1218 15.433C26.1218 15.532 26.0889 15.6311 26.0229 15.7301C25.957 15.7961 25.8581 15.8621 25.7592 15.8621H24.0448C23.8798 15.8621 23.7151 15.7301 23.682 15.565C23.2864 13.7494 22.2643 13.1553 19.5607 13.1553C16.5276 13.1553 16.1648 14.2116 16.1648 15.0038C16.1648 15.9613 16.5934 16.2582 20.6817 16.7864C24.7371 17.3146 26.6493 18.0739 26.6493 20.9129C26.6164 23.818 24.2426 25.4685 20.0553 25.4685Z" fill="#539E43"/>
</g>
<defs>
<clipPath id="clip0_218_52">
<rect width="32" height="36" fill="white"/>
</clipPath>
</defs>
</svg>
