<svg width="36" height="36" viewBox="0 0 36 36" fill="none" xmlns="http://www.w3.org/2000/svg">
<path d="M10.125 15.4125C11.175 11.2125 13.8 9.11255 18 9.11255C24.3 9.11255 25.0875 13.8375 28.2375 14.625C30.3375 15.15 32.175 14.3625 33.75 12.2625C32.7 16.4625 30.075 18.5625 25.875 18.5625C19.575 18.5625 18.7875 13.8375 15.6375 13.05C13.5375 12.525 11.7 13.3125 10.125 15.4125ZM2.25 24.8625C3.3 20.6625 5.925 18.5625 10.125 18.5625C16.425 18.5625 17.2125 23.2875 20.3625 24.075C22.4625 24.6 24.3 23.8125 25.875 21.7125C24.825 25.9125 22.2 28.0125 18 28.0125C11.7 28.0125 10.9125 23.2875 7.7625 22.5C5.6625 21.975 3.825 22.7625 2.25 24.8625Z" fill="#44A8B3"/>
</svg>
